<?xml version="1.0" encoding="UTF-8"?><svg id="Layer_1" xmlns="http://www.w3.org/2000/svg" viewBox="0 0 270.11 270.14"><defs><style>.cls-1{fill:#fff;}</style></defs><path class="cls-1" d="M260.45,205.01l-69.4-70.09,69.38-69.62.71-.9c12.85-16.24,11.78-38.43-2.54-52.75-14.32-14.32-36.5-15.39-52.75-2.54l-.87.69-70.09,69.39L66.17,10.59l-.81-.65C56.28,2.58,46.41-.71,36.04.13h0C22.37,1.25,10.08,9.78,3.98,22.4c-6.05,12.5-5.16,26.7,2.37,37.99l1.04,1.56,71.85,73.35L9.79,205l-.71.9c-12.85,16.24-11.78,38.43,2.54,52.75,7.64,7.64,17.5,11.5,27.52,11.5,8.77,0,17.65-2.97,25.23-8.96l.87-.69,70.1-69.41,68.81,68.57.81.81.9.71c16.24,12.85,38.43,11.78,52.75-2.54,14.32-14.32,15.39-36.5,2.54-52.75l-.69-.87Z"/></svg>