<?xml version="1.0" encoding="UTF-8"?><svg id="Layer_1" xmlns="http://www.w3.org/2000/svg" viewBox="0 0 500 500"><defs><style>.cls-1{fill:#fff;}.cls-2{fill:none;}</style></defs><path class="cls-1" d="M365.41,398.51l-1.25-2.1-145.74-146.73,142.99-143.15.53-.53.49-.57c6.99-8.12,9.82-18.85,7.98-30.21-2-12.39-10.39-22.68-22.44-27.51-12.08-4.85-25.85-3.11-35.93,4.52l-1.17.88-1.03,1.04c-21.95,22.34-44.65,44.84-66.6,66.6-35.62,35.31-72.46,71.82-107.4,108.93l-2.47,2.62-1.4,3.32c-5.4,12.8-3.3,27.27,5.47,37.75l.63.76.7.69c22.67,22.23,45.48,45.25,67.54,67.51,34.83,35.14,70.84,71.47,107.46,105.94l2.87,2.7,3.69,1.41c4.62,1.77,9.34,2.62,13.98,2.62,10.68,0,20.86-4.56,27.99-13.06,10.32-12.28,11.53-29.34,3.1-43.46Z"/><rect class="cls-2" width="500" height="500"/></svg>