<?xml version="1.0" encoding="UTF-8"?><svg id="Layer_1" xmlns="http://www.w3.org/2000/svg" viewBox="0 0 230.16 230.16"><defs><style>.cls-1{fill:#fff;}.cls-2{fill:none;}</style></defs><path class="cls-1" d="M135.39,186.75l.26-51.19,51.01-.09.59-.07c10.68-1.25,18.42-9.78,18.42-20.29,0-10.51-7.75-19.04-18.42-20.29l-.57-.07-51.18-.26-.04-50.39-.06-.54c-.63-6.03-3.04-10.86-7.16-14.36h0c-5.42-4.61-13.06-5.98-19.93-3.59-6.8,2.37-11.69,7.9-13.07,14.81l-.19.95-.55,53.28-51.06.09-.59.07c-10.68,1.25-18.42,9.78-18.42,20.29,0,5.6,2.2,10.64,5.88,14.32,3.22,3.22,7.56,5.39,12.55,5.97l.57.07,51.19.26.09,50.41v.59s.07.59.07.59c1.24,10.68,9.78,18.42,20.29,18.42,10.51,0,19.04-7.75,20.29-18.42l.07-.57Z"/><rect class="cls-2" width="230.16" height="230.16"/></svg>