<?xml version="1.0" encoding="UTF-8"?><svg id="Layer_1" xmlns="http://www.w3.org/2000/svg" viewBox="0 0 230.16 230.16"><defs><style>.cls-1{fill:#fff;}.cls-2{fill:none;}</style></defs><rect class="cls-2" width="230.16" height="230.16"/><path class="cls-1" d="M181.66,20.53c14.6,1.42,26.97,14.5,28.09,29.02.6,7.8.84,26.67-.92,33.82-3.52,14.32-15.87,23.24-30.29,24.04-20.44,1.13-46.29,2.15-53.9-21.54-2.58-8.03-2.65-32.61-.82-40.95,2.73-12.46,14.39-23.1,27.17-24.39,7.23-.73,23.42-.71,30.68,0ZM153.1,44.28c-3.86,1.02-6.08,3.55-6.51,7.54-.61,5.64-.61,18.31-.04,23.98.47,4.72,3.63,7.56,8.3,7.96,5.9.51,17.42.53,23.29-.02,4.35-.41,7.57-3.04,7.97-7.56.53-5.92.62-18.95-.01-24.78-.42-3.85-3.35-6.79-7.21-7.21-8.01-.86-17.61.58-25.79.09ZM20.51,181.69c-.71-7.26-.73-23.45,0-30.68,1.6-15.79,15.44-27.19,30.85-28.11,22.61-1.35,51.26-1.55,55.54,26.91,1.29,8.57,1.31,31.05-1.47,38.99-4.05,11.54-15.15,20.11-27.43,20.99-8.18.59-27.21.83-34.65-1.23-11.76-3.26-21.64-14.61-22.84-26.88ZM51.48,146.68c-3.97.5-6.4,2.89-7.28,6.77.58,8.1-.89,17.54-.03,25.47.44,4.1,3.51,6.85,7.56,7.22,5.8.53,19.08.63,24.78-.01,4.52-.51,6.88-4.03,7.22-8.3.47-5.96.57-17.43-.02-23.3-.44-4.47-3.47-7.5-7.95-7.95-5.58-.55-18.79-.59-24.29.1ZM79.28,20.53c1.78.66,3.72.75,5.55,1.29,24.6,7.21,23.81,33.33,22.56,54.35-1.91,32.04-30.99,32.73-56.03,31.23-12.52-.75-23.4-7.74-28.32-19.36-1.24-2.92-1.81-5.68-2.52-8.75.7-9.84-.94-20.99,0-30.68,1.18-12.14,10.93-23.49,22.55-26.8l5.54-1.3h30.68ZM50.72,44.28c-3.34.53-6.09,3.45-6.53,6.78-1.02,7.76.7,17.5-.03,25.47.82,4.59,3.74,6.86,8.3,7.22,5.96.47,17.42.57,23.3-.02,4.72-.47,7.56-3.63,7.96-8.3.51-5.9.53-17.42-.02-23.29-.41-4.37-2.83-7.19-7.2-7.95-7.93.81-18.13-1.12-25.78.09ZM122.88,135.28c-1.08,15.44,4.42,20.65,19.8,19.44,6.9-.55,11.47-5.11,12.01-12.01,1.25-15.97-4.87-21.59-20.79-19.68-6.74.8-10.56,5.69-11.02,12.26ZM178.32,144.19c.56,6.11,5.8,10.07,11.64,10.53,16.39,1.29,21.38-4.81,19.78-20.89-1.06-10.73-12.11-11.84-20.78-10.8-11.19,1.34-11.48,12.15-10.65,21.17ZM122.9,189.64c-1.48,16.57,4.84,21.99,21.21,20.1,10.33-1.19,11.4-12.04,10.53-20.43-.51-4.89-4.14-9.87-9.18-10.78-2.53-.46-10.49-.48-13.05-.08-5.32.83-9.05,6.07-9.51,11.19ZM166.39,154.59c-6.53,0-11.83,5.29-11.83,11.83s5.29,11.83,11.83,11.83,11.83-5.29,11.83-11.83-5.29-11.83-11.83-11.83Z"/></svg>