<?xml version="1.0" encoding="UTF-8"?><svg id="Layer_1" xmlns="http://www.w3.org/2000/svg" viewBox="0 0 500 500"><defs><style>.cls-1{fill:#fff;}.cls-2{fill:none;}</style></defs><path class="cls-1" d="M362.56,226.62l-.63-.76-.7-.69c-22.67-22.24-45.49-45.26-67.55-67.52-34.83-35.14-70.84-71.47-107.46-105.93l-2.87-2.7-3.69-1.41c-15.27-5.84-31.74-1.75-41.97,10.43-10.32,12.28-11.53,29.34-3.1,43.46l1.25,2.1,145.74,146.72-142.99,143.14-.53.53-.49.57c-6.61,7.68-9.5,17.7-8.24,28.38l.26,1.83c2,12.4,10.39,22.68,22.44,27.51,4.54,1.82,9.31,2.71,14.04,2.71,7.86,0,15.59-2.46,21.88-7.23l1.17-.88,1.03-1.04c21.95-22.34,44.65-44.84,66.6-66.6,35.62-35.31,72.46-71.82,107.4-108.93l2.47-2.62,1.4-3.32c5.4-12.8,3.31-27.27-5.47-37.76Z"/><rect class="cls-2" width="500" height="500"/></svg>