<?xml version="1.0" encoding="UTF-8"?><svg id="Layer_1" xmlns="http://www.w3.org/2000/svg" viewBox="0 0 414.71 345.08"><defs><style>.cls-1{fill:#fff;}</style></defs><path class="cls-1" d="M62.1,70.79l222.36.02c105.07,6.25,165.61,121.52,107.94,211.06-60.28,93.58-184.9,52.89-277.66,61.81-21.26.45-27.68-27.68-7.46-35.28,55.89-2.6,113.76,2.61,169.42-.27,137.7-7.11,133.3-196.93,0-201.83H62.11c-.5,1.92.8,2.21,1.65,3.32,10.19,13.28,28.65,25.54,38.85,38.78,13.5,17.53-7.48,38.51-25.01,25.01C52.44,154.04,29.03,120.36,3.85,99.67c-6.48-8.87-4.11-16.45,2.23-24.44C25.01,51.37,55.39,29.68,75.4,5.91c14.69-13.9,35.73-1.45,30.55,18.35-2.63,10.05-37.1,35.53-43.84,46.54Z"/></svg>