<?xml version="1.0" encoding="UTF-8"?><svg id="Layer_1" xmlns="http://www.w3.org/2000/svg" viewBox="0 0 454.67 385.03"><defs><style>.cls-1{fill:#fff;}</style></defs><path class="cls-1" d="M437.7,156.89c-25.63-50.5-75-82.68-132.09-86.07l-.59-.04-174.31-.02c7.88-7.98,12.7-14.41,14.55-21.47,4.61-17.63-2.24-35.36-17.04-44.12-14.75-8.73-33.47-6.24-46.6,6.18l-.82.78-.73.87c-8.71,10.35-19.82,20.48-31.58,31.21-13.38,12.21-27.22,24.84-38.11,38.56-17.33,21.85-9.14,39.87-2.71,48.67l1.49,2.05,1.96,1.61c10.92,8.97,21.76,20.96,33.23,33.65,13.02,14.41,26.49,29.3,41.02,40.49,15.68,12.08,36.92,11,50.49-2.57,13.57-13.57,14.65-34.8,2.57-50.49-2.67-3.46-5.65-6.74-8.79-9.89h166.66c56.25,2.23,81.73,42.07,82.01,80.64.28,38.29-25.16,78.25-82.66,81.22-27.58,1.43-56.58.8-84.63.19-27.8-.61-56.54-1.23-84.68.08l-3.15.15-2.95,1.11c-17.98,6.76-28.06,24.32-24.52,42.7,3.57,18.54,19.34,31.3,38.52,31.3.3,0,.61,0,.92,0l.75-.02.74-.07c23.5-2.26,49.45-1.13,76.93.06,16.08.7,32.6,1.41,49.15,1.41,63.18,0,126.61-10.45,166.49-72.36,30.67-47.62,33.85-105.85,8.52-155.78Z"/></svg>