<?xml version="1.0" encoding="UTF-8"?><svg id="Layer_1" xmlns="http://www.w3.org/2000/svg" viewBox="0 0 434.62 478.45"><defs><style>.cls-1{fill:#fff;}</style></defs><path class="cls-1" d="M116.66,117.3c-4.85-5.24-7.08-14.15-1.13-22.24l.2-.23L205.45,5.08c5.56-5.13,12.49-6.43,19.07-3.63l.31.13.25.23c21.42,19.4,42.16,40.46,62.22,60.83,10.95,11.12,22.28,22.63,33.57,33.71l.19.18.13.22c4.79,8.07,3.92,17.06-2.21,22.92-6.15,5.86-15.17,6.32-22.97,1.16l-.31-.25-60.49-60.02v229.81c0,7.38-10.64,14.12-17.07,14.27-.09,0-.17,0-.26,0-4.4,0-10.2-2.58-13.92-6.21-2.59-2.53-3.97-5.32-3.97-8.07V60.56l-60.21,59.66-.19.12c-8.84,5.49-17.9,2.43-22.95-3.03ZM434.22,367.97c-.28-8.79-.58-17.88-.24-26.36v-.21s-.03-.2-.03-.2c-1.63-9.71-10.05-14.11-17.68-14.16-7.25,0-15.35,4-17.02,13.15-1.68,9.22-1.12,21.35-.57,33.08.4,8.49.81,17.27.3,24.45-1.8,25.79-19.2,43.64-44.36,45.51l-277.56-.32c-42.45-6.84-41.78-43.19-41.13-78.35.16-8.75.31-17.02-.16-24.93v-.24s-.08-.23-.08-.23c-2.77-9.02-11.68-13.88-21.67-11.81-7.13,1.48-12.31,9.27-13.02,15.65-1.86,16.63-1.46,62.84,3.95,79.88,9.73,30.62,39.14,53.46,71.51,55.55h.13s284.77-.17,284.77-.17h.22c17.24-1.94,33.84-9.58,46.76-21.54,13.08-12.1,21.81-28.15,24.58-45.17,2.25-13.85,1.76-28.97,1.29-43.6Z"/></svg>