<?xml version="1.0" encoding="UTF-8"?><svg id="Layer_1" xmlns="http://www.w3.org/2000/svg" viewBox="0 0 393.03 428.99"><defs><style>.cls-1{fill:#fff;}</style></defs><path class="cls-1" d="M144.03,134.81l2.13-1.34,16.44-16.29v138.88c0,7.63,3.29,15.04,9.26,20.88,6.79,6.62,16.48,10.73,25.29,10.73h.68c15.77-.37,33.41-13.96,33.41-31.6V117.23l15.83,15.71,1.79,1.44.79.52c14.19,9.39,31.68,8.13,43.53-3.17,11.78-11.26,13.86-28.66,5.2-43.26l-1.55-2.62-2.07-1.95c-8.94-8.78-17.97-17.95-26.71-26.82l-.21-.21c-16.49-16.74-33.53-34.05-51.35-50.19l-2.73-2.52-3.45-1.44c-12.51-5.3-26.62-2.74-36.83,6.68l-.3.27-73.24,73.26-1.65,1.82-.48.66c-4.31,5.85-6.55,12.55-6.79,19.25,0,0-.68,7.97,2.14,14.37,1.42,3.23,6.98,9.9,6.98,9.9,11.46,12.39,29.51,14.81,43.9,5.87Z"/><path class="cls-1" d="M393.03,318.17c-.21-6.67-.43-13.57-.19-19.63l.02-2.47-.3-1.97c-2.23-13.31-11.76-23.43-24.4-26.9l-8.14-1.45-8.67.83c-13.48,2.65-23.91,12.78-26.4,26.42-1.78,9.77-1.26,20.78-.76,31.43.3,6.31.6,12.83.27,17.55-.76,10.88-6.77,17.39-16.95,18.4l-223.12-.26c-12.68-2.41-15.82-8.63-15.18-43.35.13-7.3.26-14.2-.13-21.21v-2.99l-1.07-3.1c-5.46-17.05-22.49-26.67-40.68-22.91-15.49,3.21-25.01,17.57-26.4,30.09-1.45,12.99-1.84,54.75,4.03,73.23,10.35,32.56,41.57,56.85,75.92,59.07l1.41.04,231.54-.14h1.3l1.12-.12c18.23-2.05,35.77-10.12,49.37-22.71,7.47-6.91,16.5-15.86,20.59-24.95,4.78-10.62,5.66-21.45,5.66-21.45l1.19-41.45Z"/></svg>